<?xml version="1.0" standalone="no"?>
<!DOCTYPE svg PUBLIC "-//W3C//DTD SVG 20010904//EN"
 "http://www.w3.org/TR/2001/REC-SVG-20010904/DTD/svg10.dtd">
<svg version="1.0" xmlns="http://www.w3.org/2000/svg"
 width="512.000000pt" height="512.000000pt" viewBox="0 0 512.000000 512.000000"
 preserveAspectRatio="xMidYMid meet">

<g transform="translate(0.000000,512.000000) scale(0.100000,-0.100000)"
fill="#000000" stroke="none">
<path d="M2915 4739 c-96 -12 -235 -53 -323 -94 -285 -134 -457 -364 -533
-712 -18 -85 -22 -141 -26 -430 l-5 -333 -289 0 c-305 0 -328 -3 -348 -47 -7
-16 -11 -147 -11 -406 0 -426 -1 -417 68 -437 21 -5 152 -10 308 -10 l271 0 6
-197 c4 -108 7 -519 7 -914 0 -505 3 -725 11 -742 6 -14 22 -30 36 -36 16 -7
150 -11 418 -11 l394 0 28 24 28 24 3 926 2 926 318 0 c189 0 332 4 355 11 73
20 72 16 72 444 0 350 -1 383 -18 408 -10 16 -29 32 -43 37 -14 6 -172 10
-360 10 l-336 0 4 283 c4 303 7 326 59 374 57 52 85 57 379 63 303 6 321 9
337 68 10 35 10 689 0 724 -15 56 -33 58 -404 57 -186 -1 -369 -5 -408 -10z"/>
</g>
</svg>
