<?xml version="1.0" standalone="no"?>
<!DOCTYPE svg PUBLIC "-//W3C//DTD SVG 20010904//EN"
 "http://www.w3.org/TR/2001/REC-SVG-20010904/DTD/svg10.dtd">
<svg version="1.0" xmlns="http://www.w3.org/2000/svg"
 width="512.000000pt" height="512.000000pt" viewBox="0 0 512.000000 512.000000"
 preserveAspectRatio="xMidYMid meet">

<g transform="translate(0.000000,512.000000) scale(0.100000,-0.100000)"
fill="#000000" stroke="none">
<path d="M2395 4919 c-110 -14 -251 -56 -352 -104 -359 -170 -586 -479 -685
-935 -20 -92 -22 -133 -22 -335 0 -219 1 -237 31 -380 96 -454 322 -954 668
-1475 133 -200 278 -396 420 -564 l90 -107 43 48 c199 219 441 551 621 850
307 512 507 1020 566 1441 23 159 16 432 -13 567 -85 394 -315 700 -652 870
-216 109 -477 154 -715 124z m270 -844 c218 -46 399 -222 450 -438 17 -74 19
-185 4 -259 -6 -29 -29 -91 -51 -137 -97 -198 -295 -321 -516 -321 -105 0
-171 14 -257 55 -253 122 -384 400 -315 669 28 110 74 190 155 271 143 143
334 201 530 160z"/>
<path d="M619 1023 c-310 -416 -577 -774 -592 -795 l-29 -38 1973 2 1972 3
584 783 c320 431 583 788 583 793 0 5 -349 9 -869 9 l-869 0 -33 -52 c-218
-348 -442 -639 -691 -902 l-104 -110 -118 130 c-222 243 -448 538 -621 812
l-78 122 -272 0 -272 0 -564 -757z"/>
</g>
</svg>
