<?xml version="1.0" standalone="no"?>
<!DOCTYPE svg PUBLIC "-//W3C//DTD SVG 20010904//EN"
 "http://www.w3.org/TR/2001/REC-SVG-20010904/DTD/svg10.dtd">
<svg version="1.0" xmlns="http://www.w3.org/2000/svg"
 width="512.000000pt" height="512.000000pt" viewBox="0 0 512.000000 512.000000"
 preserveAspectRatio="xMidYMid meet">

<g transform="translate(0.000000,512.000000) scale(0.100000,-0.100000)"
fill="#000000" stroke="none">
<path d="M315 4061 c11 -10 521 -420 1133 -910 l1112 -892 1130 906 c622 499
1130 908 1130 911 0 2 -1018 4 -2262 4 -2209 0 -2262 0 -2243 -19z"/>
<path d="M0 2610 l0 -1431 23 18 c204 161 1747 1419 1747 1424 0 6 -1727 1394
-1757 1413 -10 6 -13 -282 -13 -1424z"/>
<path d="M4235 3336 c-484 -388 -880 -710 -880 -716 0 -5 396 -331 880 -723
l880 -714 3 713 c1 393 1 1036 0 1430 l-3 716 -880 -706z"/>
<path d="M1054 1766 l-889 -721 1198 -3 c658 -1 1736 -1 2394 0 l1198 3 -889
721 -889 722 -305 -244 c-168 -135 -311 -243 -318 -240 -7 3 -148 113 -312
244 l-298 239 -890 -721z"/>
</g>
</svg>
