<?xml version="1.0" standalone="no"?>
<!DOCTYPE svg PUBLIC "-//W3C//DTD SVG 20010904//EN"
 "http://www.w3.org/TR/2001/REC-SVG-20010904/DTD/svg10.dtd">
<svg version="1.0" xmlns="http://www.w3.org/2000/svg"
 width="512.000000pt" height="512.000000pt" viewBox="0 0 512.000000 512.000000"
 preserveAspectRatio="xMidYMid meet">

<g transform="translate(0.000000,512.000000) scale(0.100000,-0.100000)"
fill="#000000" stroke="none">
<path d="M2580 4942 l0 -159 117 -7 c305 -17 580 -89 858 -225 724 -354 1198
-1068 1243 -1870 l7 -126 159 -3 159 -3 -7 128 c-18 346 -103 680 -250 980
-135 275 -278 476 -490 688 -203 203 -382 336 -626 464 -330 173 -651 259
-1072 286 l-98 7 0 -160z"/>
<path d="M863 4616 c-84 -27 -133 -69 -428 -368 -273 -275 -304 -310 -342
-383 -109 -209 -120 -418 -36 -694 387 -1283 1735 -2650 3026 -3070 188 -61
255 -74 392 -73 145 0 238 22 355 83 104 54 177 118 466 410 261 264 283 294
305 413 15 77 4 153 -32 232 -32 71 -727 769 -808 813 -77 40 -164 55 -243 41
-112 -21 -139 -40 -368 -266 -250 -246 -279 -265 -405 -272 -65 -3 -91 0 -140
18 -57 21 -85 47 -577 538 -586 584 -572 567 -571 712 0 130 15 152 260 402
185 187 218 226 246 285 29 63 32 76 32 168 0 167 7 157 -423 588 -424 426
-429 429 -581 434 -54 2 -102 -2 -128 -11z"/>
<path d="M2580 3987 l0 -156 58 -5 c272 -28 444 -85 639 -211 107 -70 290
-250 355 -350 126 -195 197 -401 214 -624 l7 -91 153 0 c84 0 155 3 157 8 3 4
1 57 -4 117 -36 486 -296 929 -704 1201 -233 155 -502 246 -772 261 l-103 6 0
-156z"/>
</g>
</svg>
